<?xml version="1.0" encoding="UTF-8"?>
<svg width="16px" height="18px" viewBox="0 0 16 18" version="1.1" xmlns="http://www.w3.org/2000/svg" xmlns:xlink="http://www.w3.org/1999/xlink">
    <!-- Generator: Sketch 44.1 (41455) - http://www.bohemiancoding.com/sketch -->
    <title>download</title>
    <desc>Created with Sketch.</desc>
    <defs></defs>
    <g id="Page-1" stroke="none" stroke-width="1" fill="none" fill-rule="evenodd">
        <g id="Artboard" transform="translate(-152.000000, -99.000000)" stroke-width="0.5" stroke="#FFFFFF" fill="#FFFFFF" fill-rule="nonzero">
            <g id="download" transform="translate(153.000000, 100.000000)">
                <g id="Group">
                    <path d="M12.66,3.94074074 L9.45,3.94074074 L9.45,4.53333333 L12.66,4.53333333 C13.2,4.53333333 13.65,4.97777778 13.65,5.48148148 L13.65,14.2222222 C13.65,14.7555556 13.2,15.1703704 12.66,15.1703704 L1.74,15.1703704 C1.2,15.1703704 0.75,14.7259259 0.75,14.2222222 L0.75,5.48148148 C0.75,4.94814815 1.2,4.53333333 1.74,4.53333333 L4.95,4.53333333 L4.95,3.94074074 L1.74,3.94074074 C0.87,3.94074074 0.15,4.62222222 0.15,5.48148148 L0.15,14.2222222 C0.15,15.0814815 0.87,15.762963 1.74,15.762963 L12.66,15.762963 C13.53,15.762963 14.25,15.0814815 14.25,14.2222222 L14.25,5.48148148 C14.25,4.65185185 13.53,3.94074074 12.66,3.94074074 Z" id="Shape"></path>
                    <path d="M4.74,9.52095861 L6.99,11.9549455 C7.05,12.024488 7.11,12.0592593 7.2,12.0592593 C7.29,12.0592593 7.35,12.024488 7.41,11.9549455 L9.66,9.52095861 L9.24,8.99938998 L7.5,10.9118083 L7.5,0.237037037 L6.9,0.237037037 L6.9,10.9118083 L5.16,9.03416122 L4.74,9.52095861 Z" id="Shape"></path>
                </g>
            </g>
        </g>
    </g>
</svg>