<?xml version="1.0" encoding="UTF-8"?>
<svg width="16px" height="17px" viewBox="0 0 16 17" version="1.1" xmlns="http://www.w3.org/2000/svg" xmlns:xlink="http://www.w3.org/1999/xlink">
    <!-- Generator: Sketch 44.1 (41455) - http://www.bohemiancoding.com/sketch -->
    <title>Shape</title>
    <desc>Created with Sketch.</desc>
    <defs></defs>
    <g id="Page-1" stroke="none" stroke-width="1" fill="none" fill-rule="evenodd">
        <g id="Artboard" transform="translate(-124.000000, -101.000000)" stroke="#FFFFFF" fill-rule="nonzero" fill="#FFFFFF">
            <path d="M131.36983,102 C129.121655,102 126.975669,102.987835 125.545012,104.690998 L125.545012,102.579075 C125.545012,102.442822 125.442822,102.306569 125.272506,102.306569 C125.10219,102.306569 125,102.408759 125,102.579075 L125,105.440389 C125,105.440389 125,105.440389 125,105.474453 L125,105.542579 L125,105.576642 C125,105.576642 125,105.610706 125.034063,105.610706 L125.068127,105.644769 L125.068127,105.644769 L125.10219,105.644769 C125.10219,105.644769 125.136253,105.644769 125.136253,105.678832 L125.170316,105.678832 L125.20438,105.678832 L128.065693,105.678832 C128.201946,105.678832 128.3382,105.576642 128.3382,105.406326 C128.3382,105.23601 128.23601,105.13382 128.065693,105.13382 L125.715328,105.13382 C127.077859,103.46472 129.121655,102.476886 131.301703,102.476886 C135.253041,102.476886 138.489051,105.712895 138.489051,109.664234 C138.489051,113.615572 135.253041,116.851582 131.301703,116.851582 C129.80292,116.851582 128.372263,116.408759 127.145985,115.523114 C127.043796,115.454988 126.873479,115.454988 126.805353,115.591241 C126.737226,115.693431 126.737226,115.863747 126.873479,115.931873 C128.167883,116.851582 129.70073,117.328467 131.301703,117.328467 C135.559611,117.328467 139,113.888078 139,109.63017 C139,105.372263 135.593674,102 131.36983,102 Z" id="Shape" transform="translate(132.000000, 109.664234) rotate(-180.000000) translate(-132.000000, -109.664234) "></path>
        </g>
    </g>
</svg>